<svg xmlns="http://www.w3.org/2000/svg" viewBox="0 0 128 128">
  <rect width="128" height="128" fill="#3178C6" rx="15"/>
  <path fill="#FFF" d="M29.5 98v-9.25h15.25V55h10.75v33.75h15.25V98h-41.25zm53.5 0v-8.25c2.75 1.75 5.5 3 8 3.75 2.5.75 4.75 1.25 7 1.25 3.25 0 5.75-.75 7.5-2.25 1.75-1.5 2.5-3.5 2.5-6s-.75-4.25-2-5.75c-1.5-1.5-3.5-3-6.25-4.5l-4-2.25c-4.25-2.5-7.5-5.25-9.25-7.75-2-2.75-3-6-3-9.5 0-4.75 1.75-8.75 5.5-11.75 3.75-3.25 8.75-4.75 14.75-4.75 3.5 0 6.75.5 10 1.5 3.25 1 6.25 2.5 8.5 4.5v8.25c-2.5-1.75-5.25-3-8-4-2.75-1-5.25-1.25-7.5-1.25-3 0-5.25.75-6.75 2-1.5 1.25-2.25 3.25-2.25 5.25 0 2.25.75 4 2 5.5s3.5 3 6.5 4.5l4 2c4.25 2.5 7.5 5.25 9.5 8 2 2.75 3 6 3 10 0 5-1.75 9-5.25 12-3.5 3-8.5 4.5-15 4.5-4 0-7.75-.75-11.25-2.25-3.5-1.5-6.5-3.25-8.75-5.25z"/>
</svg>
